<svg xmlns="http://www.w3.org/2000/svg" viewBox="0 0 294.06 390.9"><defs><style>.cls-1{fill:#6b5a7a;}</style></defs><title>Logo2_2</title><g id="Layer_2" data-name="Layer 2"><g id="Layer_1-2" data-name="Layer 1"><path class="cls-1" d="M12.65,373.37l7.45-1.13c1.67-.24,2.15-1.07,2.15-2.09,0-2.44-1.67-4.41-5.49-4.41a5.6,5.6,0,0,0-6,5.25l-6.32-1.43c.54-5,5.07-9.49,12.22-9.49,9,0,12.35,5.07,12.35,10.86v14.43a26.23,26.23,0,0,0,.36,4.65H23a16.06,16.06,0,0,1-.3-3.7,10.14,10.14,0,0,1-9,4.59c-6.08,0-9.84-4.17-9.84-8.76C3.88,377,7.7,374.09,12.65,373.37Zm9.6,4.59v-1.31l-7.57,1.14c-2.15.35-3.88,1.55-3.88,3.93,0,2,1.49,3.76,4.23,3.76C18.91,385.48,22.25,383.63,22.25,378Z"/><path class="cls-1" d="M42,375.46c0,5.84,3.76,9.12,8.11,9.12a7.32,7.32,0,0,0,7.27-5.36l6.09,2.2A13.47,13.47,0,0,1,50.1,390.9c-8.53,0-15-6.61-15-15.44s6.5-15.39,14.85-15.39c7.81,0,12.11,4.89,13.3,9.55L57,371.88a6.85,6.85,0,0,0-7-5.43C45.75,366.45,42,369.62,42,375.46Z"/><path class="cls-1" d="M76.4,373.37l7.45-1.13c1.67-.24,2.15-1.07,2.15-2.09,0-2.44-1.67-4.41-5.49-4.41a5.6,5.6,0,0,0-6,5.25l-6.32-1.43c.53-5,5.07-9.49,12.22-9.49,9,0,12.35,5.07,12.35,10.86v14.43a26.77,26.77,0,0,0,.35,4.65H86.71a16.45,16.45,0,0,1-.29-3.7,10.15,10.15,0,0,1-9,4.59c-6.08,0-9.84-4.17-9.84-8.76C67.63,377,71.45,374.09,76.4,373.37ZM86,378v-1.31l-7.58,1.14c-2.14.35-3.87,1.55-3.87,3.93,0,2,1.49,3.76,4.23,3.76C82.66,385.48,86,383.63,86,378Z"/><path class="cls-1" d="M127.92,384.7a47.33,47.33,0,0,0,.3,5.31H121.6a28.88,28.88,0,0,1-.3-3.76,9.54,9.54,0,0,1-8.53,4.48c-8.35,0-14-6.56-14-15.33,0-8.35,5.66-15.21,13.83-15.21,5.07,0,7.64,2.33,8.53,4.18V346.84h6.74Zm-14.37-.06c4.53,0,7.69-3.75,7.69-9.3s-3.1-9-7.63-9-7.87,3.51-7.87,9.06S108.84,384.64,113.55,384.64Z"/><path class="cls-1" d="M162.69,381.72c-1.55,5.07-6.15,9.18-13.12,9.18-7.87,0-14.85-5.72-14.85-15.56,0-9.18,6.8-15.27,14.13-15.27,9,0,14.19,5.91,14.19,15.09a10.26,10.26,0,0,1-.18,2.21H141.64a7.76,7.76,0,0,0,7.93,7.57c4.17,0,6.32-2.21,7.27-5.07Zm-6.62-9.42c-.12-3.4-2.39-6.44-7.16-6.44a7,7,0,0,0-7.1,6.44Z"/><path class="cls-1" d="M169.66,390V361h6.62v3.7c1.67-3,5.31-4.54,8.59-4.54,3.82,0,7.15,1.73,8.71,5.13a10.19,10.19,0,0,1,9.42-5.13c5.24,0,10.25,3.34,10.25,11V390h-6.67V372.3c0-3.4-1.73-6-5.61-6-3.64,0-6,2.86-6,6.44V390h-6.8V372.3c0-3.34-1.67-6-5.61-6-3.69,0-6,2.74-6,6.44V390Z"/><path class="cls-1" d="M225.12,346.24a4.53,4.53,0,0,1,4.53,4.53,4.5,4.5,0,0,1-9,0A4.52,4.52,0,0,1,225.12,346.24ZM221.72,390V361h6.86v29Z"/><path class="cls-1" d="M242.18,375.46c0,5.84,3.75,9.12,8.11,9.12a7.33,7.33,0,0,0,7.27-5.36l6.08,2.2a13.46,13.46,0,0,1-13.35,9.48c-8.53,0-15-6.61-15-15.44s6.5-15.39,14.85-15.39c7.81,0,12.1,4.89,13.29,9.55l-6.2,2.26a6.83,6.83,0,0,0-7-5.43C245.93,366.45,242.18,369.62,242.18,375.46Z"/><path class="cls-1" d="M273.24,380.47c.24,2.62,2.21,4.95,5.91,4.95,2.86,0,4.35-1.55,4.35-3.34,0-1.55-1.07-2.74-3.4-3.22l-4.29-1c-5.13-1.13-7.81-4.47-7.81-8.46,0-5.07,4.65-9.37,10.67-9.37,8.11,0,10.73,5.25,11.21,8.11L284,369.85a5,5,0,0,0-5.37-4.35c-2.44,0-4.17,1.55-4.17,3.34,0,1.55,1.13,2.68,2.92,3l4.41.9c5.49,1.19,8.35,4.53,8.35,8.82s-3.58,9.3-11,9.3c-8.41,0-11.63-5.48-12-8.76Z"/><path d="M82.78,249H94.62l-19,67.7H63.78L47.36,265.53,30.93,316.71H19.19L0,249H12l13.56,49.46L41.44,249H53.37l16.14,49.84Z"/><path d="M132.14,247.58c17.76,0,34.46,13.08,34.46,35.23s-16.7,35.33-34.46,35.33-34.37-13.08-34.37-35.33S114.38,247.58,132.14,247.58Zm0,59.67c11.46,0,22.72-8.11,22.72-24.44s-11.26-24.44-22.72-24.44-22.63,8.12-22.63,24.44S120.78,307.25,132.14,307.25Z"/><path d="M198.68,290h-8.4v26.74H178.73V249h26c13.08,0,21.19,9.07,21.19,20.53,0,9.64-5.82,17-15.27,19.29l15.27,27.88h-13Zm3.92-10.12c7.06,0,11.65-4.1,11.65-10.31s-4.59-10.41-11.65-10.41H190.28v20.72Z"/><path d="M258.55,287.39l-9,9.84v19.48H238.11V249h11.46v32.47L278.69,249h15.09L266.37,278.9l27.69,37.81H279.65Z"/></g><g id="Layer_4" data-name="Layer 4"><path class="cls-1" d="M147,28a58.58,58.58,0,0,1,13.59,1.6l2,.47.69-1,8.86,12.09A4.64,4.64,0,0,0,175.28,43l17.56,2.17-.59.83-1.33,1.85,1.43,1.78a58.24,58.24,0,0,1-4.61,78.29c-3.44,3.35-9.22,9.14-17.2,17.21l-4,4.07,5.64,1a62.15,62.15,0,0,0,10.85,1,63.21,63.21,0,0,0,53-29.23l7.3,4.2a72.41,72.41,0,0,1-24.11,23.5,70.92,70.92,0,0,1-54.8,7.46c-.78-.21-1.63-.46-2.6-.77l-1.75-.55-1.28,1.31-1.52,1.54L154.91,161l2.59,2.07a74.28,74.28,0,0,0,46.67,16.73,72.06,72.06,0,0,0,35.23-9.05l6.11,9.4a79.37,79.37,0,0,1-20.61,8.34,84.82,84.82,0,0,1-20.76,2.59c-2.57,0-5.18-.12-7.75-.36a83.46,83.46,0,0,1-30.71-9,91.37,91.37,0,0,1-16.49-11L147.06,169l0,0,0,0-2.13,1.76a91.37,91.37,0,0,1-16.49,11,83.46,83.46,0,0,1-30.71,9c-2.57.24-5.18.36-7.75.36a84.82,84.82,0,0,1-20.76-2.59,79.37,79.37,0,0,1-20.61-8.34l6.11-9.4a72.09,72.09,0,0,0,35.23,9.05,74.26,74.26,0,0,0,46.67-16.73l2.6-2.07-2.34-2.38-1.47-1.5-1.29-1.3-1.75.54c-.9.29-1.72.52-2.47.73A71.15,71.15,0,0,1,92.16,157,70.38,70.38,0,0,1,75,149.63a72.32,72.32,0,0,1-24.11-23.5l7.29-4.2a62.59,62.59,0,0,0,63.71,28.3l5.66-1-4-4.08c-8-8.08-13.79-13.87-17.23-17.23A58.27,58.27,0,0,1,147,28m16.22-4-1.93,2.71a61.27,61.27,0,0,0-57.09,103.42c3.91,3.81,10.41,10.35,17.19,17.19a59,59,0,0,1-10.2.89,60.26,60.26,0,0,1-52-30.29l-12.49,7.19a75.47,75.47,0,0,0,26.74,27.15A73.95,73.95,0,0,0,130.62,160c.87-.24,1.73-.5,2.59-.76l1.48,1.5C120,172.44,104.23,176.8,89.89,176.8s-27.32-4.39-36.15-10.13l-9.38,14.41A80.86,80.86,0,0,0,68.42,191.4a88.06,88.06,0,0,0,21.5,2.68c2.68,0,5.35-.13,8-.37a86.26,86.26,0,0,0,31.8-9.31,93.85,93.85,0,0,0,17-11.34l.24.25.24-.25a93.85,93.85,0,0,0,17,11.34,86.26,86.26,0,0,0,31.81,9.31c2.67.24,5.35.37,8,.37a88,88,0,0,0,21.5-2.68,80.86,80.86,0,0,0,24.06-10.32l-9.38-14.41c-8.83,5.74-21.75,10.13-36.15,10.13s-30.13-4.36-44.79-16.07c.49-.51,1-1,1.51-1.54.9.28,1.8.55,2.71.8a73.74,73.74,0,0,0,57.12-7.78,75.45,75.45,0,0,0,26.73-27.15L235,117.87a60.26,60.26,0,0,1-52,30.29,59.48,59.48,0,0,1-10.33-.91c6.76-6.84,13.26-13.36,17.16-17.17a61.23,61.23,0,0,0,4.85-82.33l3.53-4.92L175.65,40a1.59,1.59,0,0,1-1.09-.64L163.25,24Z"/><path class="cls-1" d="M154,3.88,193.05,9l24.12,31.46L209,39.38l-2.6-.35L178,35.23,154,3.88M147.4,0a.11.11,0,0,0-.08.17L176.15,37.7a1,1,0,0,0,.68.4L206,42V52a1.71,1.71,0,0,0,0,2.62v.25l-.66,1.93L203.57,62c.57.58,2.06.86,3.55.86s3-.29,3.59-.86l-1.78-5.2-.68-2v-.2a1.73,1.73,0,0,0,0-2.62V42.3l15.16,2h0a.23.23,0,0,0,.18-.37L194.89,6.48a.86.86,0,0,0-.57-.33L147.42,0Z"/></g></g></svg>