<svg xmlns="http://www.w3.org/2000/svg" viewBox="0 0 708.57 87.64"><defs><style>.cls-1,.cls-2{fill:#6b5a7a;}.cls-1{stroke:#6b5a7a;stroke-miterlimit:10;}</style></defs><title>Logo2_3</title><g id="Layer_2" data-name="Layer 2"><g id="Layer_1-2" data-name="Layer 1"><path class="cls-1" d="M331.61,49.13l10.11-1.54c2.26-.32,2.91-1.45,2.91-2.83,0-3.31-2.27-6-7.44-6-4.94,0-7.69,3.15-8.09,7.12L320.52,44c.73-6.79,6.88-12.86,16.59-12.86,12.13,0,16.74,6.88,16.74,14.73V65.39a35.52,35.52,0,0,0,.49,6.31H345.6a22.08,22.08,0,0,1-.4-5c-1.87,3-5.75,6.22-12.14,6.22-8.25,0-13.35-5.66-13.35-11.89C319.71,54,324.89,50.1,331.61,49.13Zm13,6.23V53.58l-10.27,1.54c-2.92.48-5.26,2.1-5.26,5.34,0,2.67,2,5.09,5.74,5.09C340.1,65.55,344.63,63,344.63,55.36Z"/><path class="cls-1" d="M371.41,52c0,7.93,5.09,12.38,11,12.38a10,10,0,0,0,9.87-7.28l8.25,3c-1.86,6.15-7.77,12.86-18.12,12.86-11.57,0-20.39-9-20.39-20.95,0-12.13,8.82-20.87,20.14-20.87,10.6,0,16.42,6.64,18,13l-8.41,3.07a9.27,9.27,0,0,0-9.55-7.36C376.5,39.75,371.41,44,371.41,52Z"/><path class="cls-1" d="M418.08,49.13l10.11-1.54c2.27-.32,2.91-1.45,2.91-2.83,0-3.31-2.26-6-7.44-6-4.93,0-7.68,3.15-8.09,7.12L407,44c.73-6.79,6.87-12.86,16.58-12.86,12.13,0,16.74,6.88,16.74,14.73V65.39a35.52,35.52,0,0,0,.49,6.31h-8.74a22.08,22.08,0,0,1-.4-5c-1.86,3-5.74,6.22-12.13,6.22-8.26,0-13.35-5.66-13.35-11.89C406.19,54,411.37,50.1,418.08,49.13Zm13,6.23V53.58l-10.27,1.54c-2.91.48-5.26,2.1-5.26,5.34,0,2.67,2,5.09,5.75,5.09C426.57,65.55,431.1,63,431.1,55.36Z"/><path class="cls-1" d="M488,64.5a61.79,61.79,0,0,0,.41,7.2h-9a37.9,37.9,0,0,1-.41-5.1c-1.86,3.32-6,6.07-11.57,6.07-11.32,0-18.92-8.9-18.92-20.79,0-11.32,7.68-20.63,18.76-20.63,6.88,0,10.36,3.16,11.57,5.67V13.14H488Zm-19.49-.08c6.14,0,10.43-5.1,10.43-12.62s-4.21-12.21-10.35-12.21-10.68,4.77-10.68,12.29S462.09,64.42,468.48,64.42Z"/><path class="cls-1" d="M535.13,60.46c-2.1,6.87-8.33,12.45-17.8,12.45-10.67,0-20.14-7.76-20.14-21.11,0-12.46,9.22-20.71,19.17-20.71,12.14,0,19.26,8,19.26,20.47a13.65,13.65,0,0,1-.25,3H506.58a10.54,10.54,0,0,0,10.75,10.27c5.67,0,8.58-3,9.87-6.87Zm-9-12.78c-.16-4.62-3.23-8.74-9.71-8.74a9.45,9.45,0,0,0-9.62,8.74Z"/><path class="cls-1" d="M544.59,71.7V32.31h9v5c2.27-4,7.2-6.15,11.65-6.15,5.18,0,9.71,2.35,11.81,7,3.08-5.18,7.69-7,12.78-7,7.12,0,13.92,4.53,13.92,15V71.7h-9.06v-24c0-4.62-2.35-8.09-7.61-8.09-4.93,0-8.17,3.88-8.17,8.73V71.7h-9.22v-24c0-4.53-2.26-8.09-7.6-8.09-5,0-8.17,3.72-8.17,8.73V71.7Z"/><path class="cls-1" d="M619.82,12.33A6.14,6.14,0,0,1,626,18.47a6.11,6.11,0,1,1-6.15-6.14ZM615.21,71.7V32.31h9.3V71.7Z"/><path class="cls-1" d="M643,52c0,7.93,5.09,12.38,11,12.38a9.94,9.94,0,0,0,9.87-7.28l8.25,3c-1.86,6.15-7.77,12.86-18.12,12.86-11.57,0-20.39-9-20.39-20.95,0-12.13,8.82-20.87,20.15-20.87,10.59,0,16.42,6.64,18,13l-8.41,3.07a9.26,9.26,0,0,0-9.54-7.36C648.05,39.75,643,44,643,52Z"/><path class="cls-1" d="M685.1,58.76c.32,3.56,3,6.71,8,6.71,3.88,0,5.9-2.1,5.9-4.53,0-2.1-1.45-3.72-4.61-4.37l-5.82-1.29c-7-1.54-10.6-6.07-10.6-11.49,0-6.87,6.31-12.7,14.48-12.7,11,0,14.56,7.12,15.21,11l-7.93,2.27c-.32-2.27-2-5.91-7.28-5.91-3.31,0-5.66,2.11-5.66,4.53,0,2.11,1.54,3.64,4,4.13l6,1.21c7.44,1.62,11.32,6.15,11.32,12,0,6-4.85,12.62-14.88,12.62-11.41,0-15.77-7.44-16.26-11.89Z"/><path d="M179.74,31.58h7.08L175.46,72.06h-7.08l-9.82-30.6-9.82,30.6h-7L130.25,31.58h7.19l8.1,29.57L155,31.58h7.14l9.64,29.8Z"/><path d="M209.25,30.73c10.62,0,20.61,7.82,20.61,21.06s-10,21.12-20.61,21.12S188.7,65.09,188.7,51.79,198.64,30.73,209.25,30.73Zm0,35.68c6.86,0,13.59-4.86,13.59-14.62s-6.73-14.61-13.59-14.61S195.73,42,195.73,51.79,202.46,66.41,209.25,66.41Z"/><path d="M249,56.07h-5v16h-6.91V31.58h15.53c7.82,0,12.67,5.43,12.67,12.28a11.42,11.42,0,0,1-9.13,11.53l9.13,16.67h-7.76Zm2.34-6c4.23,0,7-2.45,7-6.16s-2.74-6.23-7-6.23H244V50Z"/><path d="M284.84,54.53l-5.37,5.88V72.06h-6.85V31.58h6.85V51l17.41-19.41h9L289.52,49.45l16.55,22.61h-8.62Z"/><path class="cls-2" d="M20.57,87.64a39.36,39.36,0,0,1-9.7-1.21A36.53,36.53,0,0,1,0,81.77l4.23-6.51c9.09,5.91,27.77,8.65,42-8l5.9,5.06a45.44,45.44,0,0,1-13.6,11,39,39,0,0,1-14.36,4.2C23,87.58,21.78,87.64,20.57,87.64Z"/><path class="cls-2" d="M62.61,73.41A33,33,0,0,1,45.94,69l3.26-5.63A26.9,26.9,0,0,0,62.61,66.9,27.21,27.21,0,0,0,86.07,53.23l5.64,3.24A34,34,0,0,1,79.64,68.73a33.07,33.07,0,0,1-17,4.68Z"/><path class="cls-2" d="M30.19,73.41a33.07,33.07,0,0,1-17-4.68A34,34,0,0,1,1.09,56.47l5.64-3.24A27.21,27.21,0,0,0,30.19,66.9,26.9,26.9,0,0,0,43.6,63.32L46.86,69a33.12,33.12,0,0,1-16.67,4.46Z"/><path class="cls-2" d="M72.15,87.64c-1.21,0-2.42-.06-3.62-.17a39,39,0,0,1-14.37-4.2,45.44,45.44,0,0,1-13.6-11l5.9-5.06c8,9.35,17.4,12.59,25.7,12.59a30.63,30.63,0,0,0,16.33-4.58l4.23,6.51a36.47,36.47,0,0,1-10.86,4.66A39.44,39.44,0,0,1,72.15,87.64Z"/><path class="cls-2" d="M67.31,20.88l-3.59-.13L58.26,19.7,53.9,14.62,53,12.09A27.67,27.67,0,0,0,27,58.74c5,4.87,19.33,19.52,19.33,19.52S60.7,63.61,65.69,58.74a27.65,27.65,0,0,0,1.62-37.86Z"/><path class="cls-2" d="M81,19.85,68,2.93a.37.37,0,0,0-.26-.15L46.54,0a.05.05,0,0,0,0,.08l13,17a.48.48,0,0,0,.31.17L73,19v4.52a.78.78,0,0,0-.27.59.75.75,0,0,0,.27.59v.12l-.3.87L71.89,28a3.6,3.6,0,0,0,3.23,0l-.81-2.35-.3-.89v-.1a.78.78,0,0,0,.27-.59.82.82,0,0,0-.27-.59V19.1l6.84.92A.11.11,0,0,0,81,19.85Z"/><path class="cls-2" d="M53.69,10.82l-3.57,5c3.43,4.73,8.55,7.76,15.45,9l3.9-5.46L59.29,18.08a.76.76,0,0,1-.5-.29Z"/></g></g></svg>